#!OML:ASF F:\VICON\USERDATA\INSTALL\rory3\rory3.ASF
:FULLY-SPECIFIED
:DEGREES
185
root 0.8966459913681462 17.92566328407719 39.731699846571544 2.1219476283615215 -0.0981813314828427 -0.20986314086931723
lfemur -24.53043331524737 1.947589145295751 -21.080379398768844
ltibia 47.3150588937505
lfoot 2.5410188289253677 -9.638449275726133
ltoes -5.242488243422066
rfemur -14.175318908990503 5.320125984172897 28.42886732930139
rtibia 57.20158548364364
rfoot -3.3100586385245947 -5.53158582472147
rtoes 2.163633064907362
lowerback 12.750881164853443 0.37405175233312715 0.9267359226126437
upperback -0.6505936364763802 2.7499078486772985 1.6372459284927903
thorax -8.27206881631071 1.3767747525173546 -0.04316564964727593
lowerneck -19.853543463924296 -4.020243407587868 -1.76450805270346
upperneck 10.09769981186412 -5.4049084706388095 3.289671828969458
head 6.369074152254552 -2.30307072182386 0.8422749366121148
lclavicle 4.287488207731266e-15 5.75886165290891e-17
lhumerus -49.50224652552086 -11.790613111872775 96.70131675203984
lradius 109.76331110252664
lwrist 28.735328932716573
lhand -29.36862390887258 2.902219490774542
lfingers 7.125019999999998
lthumb -3.22013932351578 32.552461422480604
rclavicle 4.28752700038245e-15 5.761646213958064e-17
rhumerus -42.96517878896604 14.04540404745783 -98.57832218802588
rradius 106.13706139641519
rwrist -9.491700397575132
rhand -20.436055654735828 36.36495153198559
rfingers 7.125019999999998
rthumb 6.002202401198083 6.309848379695266
186
root 0.9595659537049734 18.025239119617204 43.59808544812801 2.3876663517510437 0.6783840270697283 0.2037314746812715
lfemur -23.898312911469198 2.0686021619186445 -20.43512173702355
ltibia 45.82444811788457
lfoot 2.359916646105563 -10.145211657212924
ltoes -5.338098491880357
rfemur -14.828655028723164 5.4741394414048195 28.572590809361934
rtibia 57.737795529265604
rfoot -2.5542558945506677 -5.487538313585465
rtoes 1.7220508426820456
lowerback 12.744624529122948 0.38181412828598493 0.9589617854221157
upperback -0.6523203964539085 2.821225195450036 1.5998073458950444
thorax -8.289276893822727 1.3654934328542043 -0.041780104677727914
lowerneck -19.91933152875462 -4.02736002210673 -1.75152400865685
upperneck 10.13613568895757 -5.339377966060016 3.3369850483599026
head 6.390823041706403 -2.258570568737832 0.8560722111430906
lclavicle 4.287488207731266e-15 5.75886165290891e-17
lhumerus -49.05594668163046 -11.605474006844467 96.6766670166461
lradius 110.05370453282113
lwrist 28.673906804428796
lhand -29.484245528582505 2.849682804908037
lfingers 7.125019999999998
lthumb -3.2875558089278405 32.51076470739758
rclavicle 4.28752700038245e-15 5.761646213958064e-17
rhumerus -42.854392988444175 14.067709270211477 -98.55464203161591
rradius 106.21985801593902
rwrist -9.707318828572117
rhand -20.416833718618157 36.440938562382954
rfingers 7.125019999999998
rthumb 5.994248411266737 6.321886077970875
187
root 0.9241078686125321 17.971703619473935 40.93283157381601 2.1744943710329614 0.294590248484107 -0.0416200645326934
lfemur -22.25527824797205 2.309911532119669 -20.549226217781996
ltibia 44.37738020157441
lfoot 3.0021993798538293 -10.343572151802256
ltoes -5.662444035824864
rfemur -13.87776875541981 5.309407247833326 28.56749365426629
rtibia 57.809878784154556
rfoot -1.143675638662347 -5.011318656965716
rtoes 1.5359609635356706
lowerback 12.75222318405087 0.4180769989680232 1.1166115769178182
upperback -0.7192129676892706 2.6575029226574447 1.4885614779319698
thorax -8.266789015300414 1.3614039641128148 -0.022819342286179933
lowerneck -19.955627602879407 -4.012468435269046 -1.7450348551160864
upperneck 10.150419498374355 -5.2776728277781375 3.3602968041878474
head 6.393599521288786 -2.216209425882086 0.8701098004769096
lclavicle 4.287488207731266e-15 5.75886165290891e-17
lhumerus -49.76909636176437 -11.688148529177534 96.47718819160156
lradius 109.9573078623465
lwrist 28.819666747354706
lhand -29.478110911614415 2.883271001127091
lfingers 7.125019999999998
lthumb -3.353348721709809 32.47742429561708
rclavicle 4.28752700038245e-15 5.761646213958064e-17
rhumerus -42.722174479087926 14.150709506868203 -98.53110884098473
rradius 106.17068851229546
rwrist -9.725959824654948
rhand -20.478381564419283 36.35866522748886
rfingers 7.125019999999998
rthumb 6.089090227929708 6.470929414333272
188
root 0.9556828860694573 18.00488705509309 43.23913918118583 2.225155331589125 0.7771452562367207 0.1837595104085663
lfemur -21.29810813248656 2.246122208553727 -20.392414221328906
ltibia 42.998167991378814
lfoot 2.0170768212171617 -10.89454082922555
ltoes -5.84421939123341
rfemur -16.285876348184907 4.824806731678812 27.925647984094443
rtibia 57.67438833081854
rfoot -0.7238196554884417 -4.664560230179928
rtoes 0.753635138067377
lowerback 12.747144442334333 0.4594092935033167 1.2133953005062006
upperback -0.7335052145925413 2.6029097656690072 1.4354443300154163
thorax -8.296236611035942 1.3276008558535493 -0.08300410928448004
lowerneck -20.0297684477784 -4.065482247256214 -1.7884416510842527
upperneck 10.129014237326299 -5.223049669438794 3.381826415804276
head 6.335981285032247 -2.2510970343995504 0.8505296338982768
lclavicle 4.287488207731266e-15 5.75886165290891e-17
lhumerus -50.84612677219681 -11.438514484206642 96.30050446788053
lradius 109.97669484132611
lwrist 28.978797229576664
lhand -29.57300132056793 2.8146599679274913
lfingers 7.125019999999998
lthumb -3.370241858013001 32.499286092827425
rclavicle 4.28752700038245e-15 5.761646213958064e-17
rhumerus -42.55802836359692 14.303827157732728 -98.5380414764129
rradius 106.1089382553969
rwrist -9.682087438365784
rhand -20.384771906975697 36.40708010665853
rfingers 7.125019999999998
rthumb 6.0464444113024856 6.471781937101304
